<svg width="32" height="34" viewBox="0 0 32 34" fill="none" xmlns="http://www.w3.org/2000/svg">
<circle cx="16" cy="18" r="15.5" fill="#141414" stroke="#101010"/>
<path d="M15.008 6.236C16.1653 6.236 17.1827 6.46933 18.06 6.936C18.9373 7.384 19.628 7.972 20.132 8.7V6.488H24.08V22.112C24.08 23.5493 23.7907 24.828 23.212 25.948C22.6333 27.0867 21.7653 27.9827 20.608 28.636C19.4507 29.308 18.0507 29.644 16.408 29.644C14.2053 29.644 12.3947 29.1307 10.976 28.104C9.576 27.0773 8.78267 25.6773 8.596 23.904H12.488C12.6933 24.6133 13.132 25.1733 13.804 25.584C14.4947 26.0133 15.3253 26.228 16.296 26.228C17.4347 26.228 18.3587 25.8827 19.068 25.192C19.7773 24.52 20.132 23.4933 20.132 22.112V19.704C19.628 20.432 18.928 21.0387 18.032 21.524C17.1547 22.0093 16.1467 22.252 15.008 22.252C13.7013 22.252 12.5067 21.916 11.424 21.244C10.3413 20.572 9.48267 19.6293 8.848 18.416C8.232 17.184 7.924 15.7747 7.924 14.188C7.924 12.62 8.232 11.2293 8.848 10.016C9.48267 8.80267 10.332 7.86933 11.396 7.216C12.4787 6.56267 13.6827 6.236 15.008 6.236ZM20.132 14.244C20.132 13.292 19.9453 12.48 19.572 11.808C19.1987 11.1173 18.6947 10.5947 18.06 10.24C17.4253 9.86667 16.744 9.68 16.016 9.68C15.288 9.68 14.616 9.85733 14 10.212C13.384 10.5667 12.88 11.0893 12.488 11.78C12.1147 12.452 11.928 13.2547 11.928 14.188C11.928 15.1213 12.1147 15.9427 12.488 16.652C12.88 17.3427 13.384 17.8747 14 18.248C14.6347 18.6213 15.3067 18.808 16.016 18.808C16.744 18.808 17.4253 18.6307 18.06 18.276C18.6947 17.9027 19.1987 17.38 19.572 16.708C19.9453 16.0173 20.132 15.196 20.132 14.244Z" fill="url(#paint0_linear_161_214)"/>
<path d="M14 14.5C14 15.3284 14.6716 16 15.5 16C16.3284 16 17 15.3284 17 14.5C17 13.6716 16.3284 13 15.5 13C14.6716 13 14 13.6716 14 14.5Z" stroke="url(#paint1_linear_161_214)" stroke-width="3" stroke-linejoin="round"/>
<path d="M7.03247 21.3539L8.83595 16.1439L11.0401 20.5524L7.03247 21.3539Z" stroke="url(#paint2_linear_161_214)" stroke-width="4"/>
<defs>
<linearGradient id="paint0_linear_161_214" x1="15.5" y1="6.5" x2="15.5" y2="26.5" gradientUnits="userSpaceOnUse">
<stop stop-color="#CCC3EF"/>
<stop offset="1" stop-color="#A193DA"/>
<stop offset="1" stop-color="#A193DA"/>
</linearGradient>
<linearGradient id="paint1_linear_161_214" x1="15.5" y1="13" x2="15.5" y2="16" gradientUnits="userSpaceOnUse">
<stop stop-color="#CCC3EF"/>
<stop offset="1" stop-color="#A193DA"/>
<stop offset="1" stop-color="#A193DA"/>
</linearGradient>
<linearGradient id="paint2_linear_161_214" x1="11.5" y1="16" x2="4" y2="23.5" gradientUnits="userSpaceOnUse">
<stop stop-color="#CCC3EF"/>
<stop offset="1" stop-color="#7A67C5"/>
</linearGradient>
</defs>
</svg>
