<svg width="32" height="32" viewBox="0 0 32 32" fill="none" xmlns="http://www.w3.org/2000/svg">
<circle cx="16" cy="16" r="15.5" fill="#141414" stroke="#101010"/>
<path d="M26 6C23.9773 6.13906 9.76703 7.49219 8.77366 17.2348C8.65296 18.2762 8.5846 19.3223 8.53967 20.3692L15.5269 13.3891C15.771 13.145 16.1675 13.145 16.4116 13.3891C16.6558 13.6332 16.6558 14.0289 16.4116 14.2731L6.27481 24.3997C5.9084 24.7657 5.9084 25.3595 6.27481 25.7255C6.64122 26.0915 7.23536 26.0915 7.60216 25.7255L9.83383 23.4962C11.478 23.4907 13.121 23.3974 14.7542 23.2087C16.8433 22.9962 18.5441 22.1747 19.9331 21.0001H15.9897L21.7238 19.0907C22.1632 18.509 22.5586 17.8911 22.9133 17.2501H19.7437L23.9054 15.1715C25.5426 11.1899 25.9293 7.02579 26 6Z" fill="url(#paint0_linear_161_214)"/>
<defs>
<linearGradient id="paint0_linear_161_214" x1="16" y1="6" x2="16" y2="26" gradientUnits="userSpaceOnUse">
<stop stop-color="#CCC3EF"/>
<stop offset="1" stop-color="#A193DA"/>
<stop offset="1" stop-color="#A193DA"/>
</linearGradient>
</defs>
</svg>
