<svg width="24" height="24" viewBox="0 0 24 24" fill="none" xmlns="http://www.w3.org/2000/svg">
<g clip-path="url(#clip0_211_239)">
<path d="M15 1H9V3H15V1Z" fill="url(#paint0_linear_211_239)"/>
<path d="M19.03 7.39L20.45 5.97C20.02 5.46 19.55 4.98 19.04 4.56L17.62 5.98C16.07 4.74 14.12 4 12 4C7.03 4 3 8.03 3 13C3 17.97 7.02 22 12 22C16.98 22 21 17.97 21 13C21 10.88 20.26 8.93 19.03 7.39ZM13 14H11V8H13V14Z" fill="url(#paint1_linear_211_239)"/>
</g>
<defs>
<linearGradient id="paint0_linear_211_239" x1="12" y1="1" x2="12" y2="3" gradientUnits="userSpaceOnUse">
<stop stop-color="#CCC3EF"/>
<stop offset="1" stop-color="#A193DA"/>
<stop offset="1" stop-color="#A193DA"/>
</linearGradient>
<linearGradient id="paint1_linear_211_239" x1="12" y1="4" x2="12" y2="22" gradientUnits="userSpaceOnUse">
<stop stop-color="#CCC3EF"/>
<stop offset="1" stop-color="#A193DA"/>
<stop offset="1" stop-color="#A193DA"/>
</linearGradient>
<clipPath id="clip0_211_239">
<rect width="24" height="24" fill="white"/>
</clipPath>
</defs>
</svg>
