<svg width="40" height="40" viewBox="0 0 40 40" fill="none" xmlns="http://www.w3.org/2000/svg">
<circle r="2" transform="matrix(-1 0 0 1 38 26)" fill="#CCCCCC"/>
<circle r="2" transform="matrix(-1 0 0 1 38 38)" fill="#CCCCCC"/>
<circle r="2" transform="matrix(-1 0 0 1 14 2)" fill="#CCCCCC"/>
<circle r="2" transform="matrix(-1 0 0 1 14 14)" fill="#CCCCCC"/>
<circle r="2" transform="matrix(-1 0 0 1 14 26)" fill="#CCCCCC"/>
<circle r="2" transform="matrix(-1 0 0 1 14 38)" fill="#CCCCCC"/>
<circle r="2" transform="matrix(-1 0 0 1 26 14)" fill="#CCCCCC"/>
<circle r="2" transform="matrix(-1 0 0 1 26 26)" fill="#CCCCCC"/>
<circle r="2" transform="matrix(-1 0 0 1 26 38)" fill="#CCCCCC"/>
<circle r="2" transform="matrix(-1 0 0 1 2 2)" fill="#CCCCCC"/>
<circle r="2" transform="matrix(-1 0 0 1 2 14)" fill="#CCCCCC"/>
<circle r="2" transform="matrix(-1 0 0 1 2 26)" fill="#CCCCCC"/>
<circle r="2" transform="matrix(-1 0 0 1 2 38)" fill="#CCCCCC"/>
</svg>
