<svg width="24" height="24" viewBox="0 0 24 24" fill="none" xmlns="http://www.w3.org/2000/svg">
<g clip-path="url(#clip0_211_236)">
<path d="M7 14C5.34 14 4 15.34 4 17C4 18.31 2.84 19 2 19C2.92 20.22 4.49 21 6 21C8.21 21 10 19.21 10 17C10 15.34 8.66 14 7 14ZM20.71 4.63L19.37 3.29C18.98 2.9 18.35 2.9 17.96 3.29L9 12.25L11.75 15L20.71 6.04C21.1 5.65 21.1 5.02 20.71 4.63V4.63Z" fill="url(#paint0_linear_211_236)"/>
</g>
<defs>
<linearGradient id="paint0_linear_211_236" x1="11.5012" y1="2.9975" x2="11.5012" y2="21" gradientUnits="userSpaceOnUse">
<stop stop-color="#CCC3EF"/>
<stop offset="1" stop-color="#A193DA"/>
<stop offset="1" stop-color="#A193DA"/>
</linearGradient>
<clipPath id="clip0_211_236">
<rect width="24" height="24" fill="white"/>
</clipPath>
</defs>
</svg>
