<svg width="50" height="18" viewBox="0 0 50 18" fill="none" xmlns="http://www.w3.org/2000/svg">
<path d="M3.432 6.244C3.928 6.244 4.364 6.344 4.74 6.544C5.116 6.736 5.412 6.988 5.628 7.3V6.352H7.32V13.048C7.32 13.664 7.196 14.212 6.948 14.692C6.7 15.18 6.328 15.564 5.832 15.844C5.336 16.132 4.736 16.276 4.032 16.276C3.088 16.276 2.312 16.056 1.704 15.616C1.104 15.176 0.764 14.576 0.684 13.816H2.352C2.44 14.12 2.628 14.36 2.916 14.536C3.212 14.72 3.568 14.812 3.984 14.812C4.472 14.812 4.868 14.664 5.172 14.368C5.476 14.08 5.628 13.64 5.628 13.048V12.016C5.412 12.328 5.112 12.588 4.728 12.796C4.352 13.004 3.92 13.108 3.432 13.108C2.872 13.108 2.36 12.964 1.896 12.676C1.432 12.388 1.064 11.984 0.792 11.464C0.528 10.936 0.396 10.332 0.396 9.652C0.396 8.98 0.528 8.384 0.792 7.864C1.064 7.344 1.428 6.944 1.884 6.664C2.348 6.384 2.864 6.244 3.432 6.244ZM5.628 9.676C5.628 9.268 5.548 8.92 5.388 8.632C5.228 8.336 5.012 8.112 4.74 7.96C4.468 7.8 4.176 7.72 3.864 7.72C3.552 7.72 3.264 7.796 3 7.948C2.736 8.1 2.52 8.324 2.352 8.62C2.192 8.908 2.112 9.252 2.112 9.652C2.112 10.052 2.192 10.404 2.352 10.708C2.52 11.004 2.736 11.232 3 11.392C3.272 11.552 3.56 11.632 3.864 11.632C4.176 11.632 4.468 11.556 4.74 11.404C5.012 11.244 5.228 11.02 5.388 10.732C5.548 10.436 5.628 10.084 5.628 9.676ZM8.52881 9.652C8.52881 8.98 8.66081 8.384 8.92481 7.864C9.19681 7.344 9.56081 6.944 10.0168 6.664C10.4808 6.384 10.9968 6.244 11.5648 6.244C12.0608 6.244 12.4928 6.344 12.8608 6.544C13.2368 6.744 13.5368 6.996 13.7608 7.3V6.352H15.4528V13H13.7608V12.028C13.5448 12.34 13.2448 12.6 12.8608 12.808C12.4848 13.008 12.0488 13.108 11.5528 13.108C10.9928 13.108 10.4808 12.964 10.0168 12.676C9.56081 12.388 9.19681 11.984 8.92481 11.464C8.66081 10.936 8.52881 10.332 8.52881 9.652ZM13.7608 9.676C13.7608 9.268 13.6808 8.92 13.5208 8.632C13.3608 8.336 13.1448 8.112 12.8728 7.96C12.6008 7.8 12.3088 7.72 11.9968 7.72C11.6848 7.72 11.3968 7.796 11.1328 7.948C10.8688 8.1 10.6528 8.324 10.4848 8.62C10.3248 8.908 10.2448 9.252 10.2448 9.652C10.2448 10.052 10.3248 10.404 10.4848 10.708C10.6528 11.004 10.8688 11.232 11.1328 11.392C11.4048 11.552 11.6928 11.632 11.9968 11.632C12.3088 11.632 12.6008 11.556 12.8728 11.404C13.1448 11.244 13.3608 11.02 13.5208 10.732C13.6808 10.436 13.7608 10.084 13.7608 9.676ZM18.7736 7.384C18.9896 7.032 19.2696 6.756 19.6136 6.556C19.9656 6.356 20.3656 6.256 20.8136 6.256V8.02H20.3696C19.8416 8.02 19.4416 8.144 19.1696 8.392C18.9056 8.64 18.7736 9.072 18.7736 9.688V13H17.0936V6.352H18.7736V7.384ZM21.5132 9.652C21.5132 8.98 21.6452 8.384 21.9092 7.864C22.1812 7.344 22.5452 6.944 23.0012 6.664C23.4652 6.384 23.9812 6.244 24.5492 6.244C25.0452 6.244 25.4772 6.344 25.8452 6.544C26.2212 6.744 26.5212 6.996 26.7452 7.3V6.352H28.4372V13H26.7452V12.028C26.5292 12.34 26.2292 12.6 25.8452 12.808C25.4692 13.008 25.0332 13.108 24.5372 13.108C23.9772 13.108 23.4652 12.964 23.0012 12.676C22.5452 12.388 22.1812 11.984 21.9092 11.464C21.6452 10.936 21.5132 10.332 21.5132 9.652ZM26.7452 9.676C26.7452 9.268 26.6652 8.92 26.5052 8.632C26.3452 8.336 26.1292 8.112 25.8572 7.96C25.5852 7.8 25.2932 7.72 24.9812 7.72C24.6692 7.72 24.3812 7.796 24.1172 7.948C23.8532 8.1 23.6372 8.324 23.4692 8.62C23.3092 8.908 23.2292 9.252 23.2292 9.652C23.2292 10.052 23.3092 10.404 23.4692 10.708C23.6372 11.004 23.8532 11.232 24.1172 11.392C24.3892 11.552 24.6772 11.632 24.9812 11.632C25.2932 11.632 25.5852 11.556 25.8572 11.404C26.1292 11.244 26.3452 11.02 26.5052 10.732C26.6652 10.436 26.7452 10.084 26.7452 9.676ZM32.622 13.108C32.078 13.108 31.59 13.012 31.158 12.82C30.726 12.62 30.382 12.352 30.126 12.016C29.878 11.68 29.742 11.308 29.718 10.9H31.41C31.442 11.156 31.566 11.368 31.782 11.536C32.006 11.704 32.282 11.788 32.61 11.788C32.93 11.788 33.178 11.724 33.354 11.596C33.538 11.468 33.63 11.304 33.63 11.104C33.63 10.888 33.518 10.728 33.294 10.624C33.078 10.512 32.73 10.392 32.25 10.264C31.754 10.144 31.346 10.02 31.026 9.892C30.714 9.764 30.442 9.568 30.21 9.304C29.986 9.04 29.874 8.684 29.874 8.236C29.874 7.868 29.978 7.532 30.186 7.228C30.402 6.924 30.706 6.684 31.098 6.508C31.498 6.332 31.966 6.244 32.502 6.244C33.294 6.244 33.926 6.444 34.398 6.844C34.87 7.236 35.13 7.768 35.178 8.44H33.57C33.546 8.176 33.434 7.968 33.234 7.816C33.042 7.656 32.782 7.576 32.454 7.576C32.15 7.576 31.914 7.632 31.746 7.744C31.586 7.856 31.506 8.012 31.506 8.212C31.506 8.436 31.618 8.608 31.842 8.728C32.066 8.84 32.414 8.956 32.886 9.076C33.366 9.196 33.762 9.32 34.074 9.448C34.386 9.576 34.654 9.776 34.878 10.048C35.11 10.312 35.23 10.664 35.238 11.104C35.238 11.488 35.13 11.832 34.914 12.136C34.706 12.44 34.402 12.68 34.002 12.856C33.61 13.024 33.15 13.108 32.622 13.108ZM42.8931 6.352V13H41.2011V12.16C40.9851 12.448 40.7011 12.676 40.3491 12.844C40.0051 13.004 39.6291 13.084 39.2211 13.084C38.7011 13.084 38.2411 12.976 37.8411 12.76C37.4411 12.536 37.1251 12.212 36.8931 11.788C36.6691 11.356 36.5571 10.844 36.5571 10.252V6.352H38.2371V10.012C38.2371 10.54 38.3691 10.948 38.6331 11.236C38.8971 11.516 39.2571 11.656 39.7131 11.656C40.1771 11.656 40.5411 11.516 40.8051 11.236C41.0691 10.948 41.2011 10.54 41.2011 10.012V6.352H42.8931Z" fill="white"/>
<path d="M42.908 7.312C43.124 7.008 43.42 6.756 43.796 6.556C44.18 6.348 44.616 6.244 45.104 6.244C45.672 6.244 46.184 6.384 46.64 6.664C47.104 6.944 47.468 7.344 47.732 7.864C48.004 8.376 48.14 8.972 48.14 9.652C48.14 10.332 48.004 10.936 47.732 11.464C47.468 11.984 47.104 12.388 46.64 12.676C46.184 12.964 45.672 13.108 45.104 13.108C44.616 13.108 44.184 13.008 43.808 12.808C43.44 12.608 43.14 12.356 42.908 12.052V16.168H41.228V6.352H42.908V7.312ZM46.424 9.652C46.424 9.252 46.34 8.908 46.172 8.62C46.012 8.324 45.796 8.1 45.524 7.948C45.26 7.796 44.972 7.72 44.66 7.72C44.356 7.72 44.068 7.8 43.796 7.96C43.532 8.112 43.316 8.336 43.148 8.632C42.988 8.928 42.908 9.276 42.908 9.676C42.908 10.076 42.988 10.424 43.148 10.72C43.316 11.016 43.532 11.244 43.796 11.404C44.068 11.556 44.356 11.632 44.66 11.632C44.972 11.632 45.26 11.552 45.524 11.392C45.796 11.232 46.012 11.004 46.172 10.708C46.34 10.412 46.424 10.06 46.424 9.652Z" fill="white"/>
<rect x="41.2" y="10.17" width="1" height="6" fill="white"/>
</svg>
